<?xml version="1.0" standalone="no"?>
<!DOCTYPE svg PUBLIC "-//W3C//DTD SVG 20010904//EN"
 "http://www.w3.org/TR/2001/REC-SVG-20010904/DTD/svg10.dtd">
<svg version="1.0" xmlns="http://www.w3.org/2000/svg"
 width="232.000000pt" height="232.000000pt" viewBox="0 0 232.000000 232.000000"
 preserveAspectRatio="xMidYMid meet">
<metadata>
Created by potrace 1.14, written by Peter Selinger 2001-2017
</metadata>
<g transform="translate(0.000000,232.000000) scale(0.100000,-0.100000)"
fill="#000000" stroke="none">
<path d="M193 2309 c-99 -12 -167 -75 -180 -169 -5 -30 -8 -485 -7 -1010 1
-876 2 -958 18 -995 22 -51 51 -82 101 -108 40 -20 50 -20 1035 -20 995 0 995
0 1036 21 50 26 88 69 105 119 10 30 13 255 13 1014 0 1076 2 1030 -62 1092
-66 63 -12 60 -1057 61 -522 1 -973 -2 -1002 -5z"/>
</g>
</svg>
